HIERARCHY
ROOT RootJoint
{
    OFFSET   0.000000   0.000000   0.000000
    CHANNELS 6 Xposition Yposition Zposition Xrotation Yrotation Zrotation
    JOINT pelvis_lowerback
    {
        OFFSET   0.000000   0.093605   0.000000
        CHANNELS 3 Xrotation Yrotation Zrotation
        JOINT lowerback_torso
        {
            OFFSET   0.000000   0.100000   0.000000
            CHANNELS 3 Xrotation Yrotation Zrotation
            JOINT torso_head
            {
                OFFSET   0.000000   0.282350   0.000000
                CHANNELS 3 Xrotation Yrotation Zrotation
                End Site
                {
                    OFFSET   0.000000   0.192650   0.000000
                }
            }
            JOINT rTorso_Clavicle
            {
                OFFSET  -0.001000   0.157500   0.000000
                CHANNELS 3 Xrotation Yrotation Zrotation
                JOINT rShoulder
                {
                    OFFSET  -0.117647   0.000000   0.000000
                    CHANNELS 3 Xrotation Yrotation Zrotation
                    JOINT rElbow
                    {
                        OFFSET  -0.245000   0.000000   0.000000
                        CHANNELS 3 Xrotation Yrotation Zrotation
                        JOINT rWrist
                        {
                            OFFSET  -0.240000   0.000000   0.000000
                            CHANNELS 3 Xrotation Yrotation Zrotation
                            End Site
                            {
                                OFFSET  -0.116353  -0.002500   0.000000
                            }
                        }
                    }
                }
            }
            JOINT lTorso_Clavicle
            {
                OFFSET   0.001000   0.157500   0.000000
                CHANNELS 3 Xrotation Yrotation Zrotation
                JOINT lShoulder
                {
                    OFFSET   0.117647   0.000000   0.000000
                    CHANNELS 3 Xrotation Yrotation Zrotation
                    JOINT lElbow
                    {
                        OFFSET   0.245000   0.000000   0.000000
                        CHANNELS 3 Xrotation Yrotation Zrotation
                        JOINT lWrist
                        {
                            OFFSET   0.240000   0.000000   0.000000
                            CHANNELS 3 Xrotation Yrotation Zrotation
                            End Site
                            {
                                OFFSET   0.116353  -0.002500   0.000000
                            }
                        }
                    }
                }
            }
        }
    }
    JOINT rHip
    {
        OFFSET  -0.100000  -0.051395   0.000000
        CHANNELS 3 Xrotation Yrotation Zrotation
        JOINT rKnee
        {
            OFFSET   0.000000  -0.410000   0.000000
            CHANNELS 3 Xrotation Yrotation Zrotation
            JOINT rAnkle
            {
                OFFSET   0.000000  -0.390000   0.000000
                CHANNELS 3 Xrotation Yrotation Zrotation
                JOINT rToeJoint
                {
                    OFFSET   0.000000  -0.050000   0.130000
                    CHANNELS 3 Xrotation Yrotation Zrotation
                    End Site
                    {
                        OFFSET  -0.010000   0.002000   0.060000
                    }
                }
            }
        }
    }
    JOINT lHip
    {
        OFFSET   0.100000  -0.051395   0.000000
        CHANNELS 3 Xrotation Yrotation Zrotation
        JOINT lKnee
        {
            OFFSET   0.000000  -0.410000   0.000000
            CHANNELS 3 Xrotation Yrotation Zrotation
            JOINT lAnkle
            {
                OFFSET   0.000000  -0.390000   0.000000
                CHANNELS 3 Xrotation Yrotation Zrotation
                JOINT lToeJoint
                {
                    OFFSET   0.000000  -0.050000   0.130000
                    CHANNELS 3 Xrotation Yrotation Zrotation
                    End Site
                    {
                        OFFSET   0.010000   0.002000   0.060000
                    }
                }
            }
        }
    }
}
MOTION
Frames: 10
Frame Time:   0.008333
 -2.198817   0.895873   3.624468 -18.315912 -51.834346 -16.756075   9.877510  -0.306002  -2.638879   2.161639  -1.943500   0.041646  -0.305936  -1.160514   0.888131  -1.326670 -11.978511  -2.100290  -9.513390 -12.935936  54.439296 179.987431  69.252114 -179.989317  -0.827875   6.705504 -12.427051   0.896874  10.827285   2.935013 -10.052328   3.922801 -59.119705 179.994665 -65.701127 -179.999090  -0.942254  -6.480187  16.805642   2.557098  -4.056238 -13.087445  26.019948  -0.000178  -0.000428  -3.330197  -5.563410   4.853270 -19.046505  -0.000017  -0.000202   9.366012   1.419705  14.503536  15.680291  -0.000344  -0.001343 -15.484217   1.486969   1.242911   2.162908  -0.000022  -0.000022
 -2.199780   0.895360   3.624844 -18.795816 -51.921766 -17.184998   9.707327  -0.381300  -2.666076   2.376237  -1.974690   0.054977  -0.136845  -1.196415   0.937629  -1.286244 -12.107990  -1.964741  -9.479986 -13.052452  54.573362 179.985227  69.573538 -179.987125  -0.898081   6.707277 -12.363063   0.938371  10.896660   2.869523 -10.229364   3.982489 -59.198639 179.994582 -66.081801 -179.999636  -1.023098  -6.413936  16.747678   2.768154  -3.952781 -13.052859  26.245458  -0.000202  -0.000485  -3.583501  -5.489541   4.768846 -18.944411   0.000030  -0.000142   9.662346   1.331948  14.510169  15.980974  -0.000434  -0.001754 -15.849728   1.442922   1.254431   2.167360  -0.000018  -0.000030
 -2.200699   0.894829   3.625174 -19.250875 -52.013384 -17.593316   9.555866  -0.454703  -2.687047   2.577748  -2.005601   0.068690   0.023666  -1.230224   0.984524  -1.255890 -12.238888  -1.844031  -9.457563 -13.172007  54.689209 179.983639  69.882058 -179.985465  -0.971214   6.673718 -12.376578   0.972034  10.970445   2.809793 -10.399385   4.047180 -59.267644 179.994682 -66.439871 179.999962  -1.100849  -6.343630  16.747003   2.960353  -3.844703 -13.019997  26.466655  -0.000219  -0.000522  -3.845945  -5.416161   4.691953 -18.823707   0.000066  -0.000090   9.932248   1.245425  14.514875  16.284193  -0.000512  -0.002080 -16.186432   1.400927   1.263713   2.166812  -0.000014  -0.000022
 -2.201588   0.894305   3.625470 -19.683060 -52.106448 -17.984809   9.417463  -0.525910  -2.701160   2.769837  -2.036578   0.084363   0.174992  -1.261712   1.028878  -1.227819 -12.365783  -1.734084  -9.437462 -13.287252  54.793754 179.982750  70.171747 -179.984466  -1.043611   6.629461 -12.418353   1.003589  11.042218   2.754331 -10.557833   4.110089 -59.330591 179.994986 -66.774574 179.999768  -1.175770  -6.273929  16.764914   3.138863  -3.737464 -12.986302  26.677343  -0.000230  -0.000543  -4.104125  -5.342024   4.623074 -18.699275   0.000088  -0.000049  10.186492   1.162954  14.520365  16.574447  -0.000569  -0.002298 -16.499901   1.361502   1.272406   2.167248  -0.000012  -0.000019
 -2.202449   0.893796   3.625737 -20.090686 -52.199129 -18.357849   9.289888  -0.595171  -2.709355   2.952054  -2.067751   0.102253   0.317096  -1.291045   1.070882  -1.200860 -12.486982  -1.632310  -9.418178 -13.396659  54.889817 179.982432  70.442815 -179.984025  -1.113912   6.582634 -12.468935   1.033609  11.109984   2.702326 -10.705110   4.169576 -59.389009 179.995426 -67.087091 179.999730  -1.247839  -6.206181  16.785989   3.303941  -3.632825 -12.951624  26.876840  -0.000237  -0.000550  -4.353714  -5.268470   4.561095 -18.576397   0.000097  -0.000018  10.426579   1.084478  14.526817  16.847827  -0.000607  -0.002418 -16.793074   1.324514   1.280866   2.168077  -0.000009  -0.000017
 -2.203282   0.893312   3.625987 -20.474809 -52.287496 -18.714633   9.172918  -0.663180  -2.710113   3.125027  -2.099487   0.123016   0.450382  -1.318398   1.110668  -1.174892 -12.601916  -1.537429  -9.399518 -13.499988  54.978558 179.982554  70.696395 -179.984023  -1.181893   6.535121 -12.522484   1.062131  11.172745   2.652713 -10.842026   4.225036 -59.444032 179.995937 -67.378819 179.999793  -1.317077  -6.140849  16.804781   3.453580  -3.533075 -12.914720  27.072693  -0.000240  -0.000550  -4.582141  -5.197559   4.508741 -17.145456   0.000315   0.000178  10.655226   1.009713  14.536391  17.102266  -0.000624  -0.002453 -17.068248   1.289632   1.289685   2.169104  -0.000007  -0.000016
 -2.204086   0.892834   3.626207 -20.838178 -52.386848 -19.048931   9.064010  -0.724154  -2.714193   3.287030  -2.127501   0.142771   0.575024  -1.343712   1.148226  -1.150380 -12.709039  -1.448732  -9.381664 -13.596296  55.061974 179.983006  70.932853 -179.984351  -1.247209   6.489483 -12.573721   1.088611  11.232117   2.608570 -10.969968   4.277331 -59.494133 179.996486 -67.650850 179.999922  -1.383367  -6.078732  16.824328   3.591970  -3.461233 -12.884444  27.241334  -0.000258  -0.000577  -4.826867  -5.154351   4.459339 -17.246058   0.000236   0.000181  10.868138   0.958965  14.540706  17.340400  -0.000627  -0.002411 -17.337474   1.277568   1.295550   2.170791  -0.000006  -0.000016
 -2.204651   0.892353   3.626324 -20.969956 -52.499023 -19.195068   8.877752  -0.797285  -2.716307   3.411587  -2.170849   0.179228   0.680239  -1.367045   1.188406  -1.157460 -12.862965  -1.386035  -9.547409 -13.764915  55.124572 179.981946  71.179470 -179.983151  -1.332650   6.403676 -12.481392   1.099092  11.340706   2.572967 -11.166042   4.394990 -59.592450 179.996338 -67.864037 179.999347  -1.459760  -5.971186  16.748750   3.561559  -3.381735 -12.859050  27.436849  -0.000257  -0.000569  -5.055116  -5.104871   4.418381 -17.316285   0.000181   0.000149  10.860735   0.911968  14.554822  17.656510  -0.000645  -0.002368 -17.599075   1.268361   1.279222   2.178408  -0.000004  -0.000025
 -2.205129   0.891908   3.626427 -21.073690 -52.609432 -19.314693   8.711843  -0.865344  -2.712346   3.522431  -2.211820   0.214988   0.779929  -1.389001   1.228086  -1.183561 -13.011208  -1.350939  -9.724349 -13.928921  55.167485 179.981540  71.408249 -179.982564  -1.412267   6.329372 -12.483588   1.099342  11.448136   2.547674 -11.358019   4.510165 -59.681468 179.996339 -68.057074 179.998929  -1.524735  -5.894699  16.727165   3.519721  -3.302549 -12.838107  27.612646  -0.000245  -0.000542  -5.265849  -5.058485   4.381279 -17.347470   0.000142   0.000120  10.838191   0.861801  14.562592  17.952444  -0.000641  -0.002296 -17.841815   1.253457   1.260954   2.187064  -0.000002  -0.000033
 -2.205547   0.891499   3.626525 -21.164863 -52.720710 -19.423093   8.562525  -0.926389  -2.703348   3.627816  -2.247697   0.249947   0.874433  -1.409324   1.266256  -1.214888 -13.148972  -1.331065  -9.897935 -14.082353  55.199473 179.981731  71.620083 -179.982574  -1.485851   6.269857 -12.519637   1.096408  11.550014   2.529804 -11.540211   4.619028 -59.761347 179.996475 -68.235374 179.998680  -1.582725  -5.834977  16.725410   3.471618  -3.230079 -12.819124  27.773174  -0.000233  -0.000518  -5.457041  -5.019499   4.348562 -17.350772   0.000113   0.000096  10.815174   0.810693  14.565833  18.223917  -0.000622  -0.002209 -18.067959   1.235433   1.243824   2.195153  -0.000000  -0.000039
